<?xml version="1.0" encoding="UTF-8"?>
<svg id="Layer_2" data-name="Layer 2" xmlns="http://www.w3.org/2000/svg" viewBox="0 0 100.31 139.95">
  <defs>
    <style>
      .cls-1 {
        fill: none;
        stroke: #231f20;
        stroke-linecap: round;
        stroke-linejoin: round;
        stroke-width: 3.29px;
      }
    </style>
  </defs>
  <g id="Layer_1-2" data-name="Layer 1">
    <g>
      <rect class="cls-1" x="39.19" y="4.06" width="8.1" height="83.19" rx="1.44" ry="1.44" transform="translate(88.89 2.42) rotate(90)"/>
      <path class="cls-1" d="M6.26,50.2c-.28,1.92-.43,3.89-.43,5.89,0,21.36,16.78,38.68,37.49,38.68s37.49-17.32,37.49-38.68c0-2-.15-3.97-.43-5.89"/>
      <path class="cls-1" d="M52.79,93.86l9.24,39.83c.55,2.38,2.95,3.88,5.34,3.33h0c2.38-.55,3.88-2.95,3.33-5.34l-9.5-40.89"/>
      <path class="cls-1" d="M79.48,66.29h14.49c2.58,0,4.7-2.11,4.7-4.7h0c0-2.58-2.11-4.7-4.7-4.7h-13.17"/>
      <rect class="cls-1" x="38.89" y="12.44" width="9.89" height="48.45" rx=".91" ry=".91" transform="translate(80.49 -7.17) rotate(90)"/>
      <g>
        <path class="cls-1" d="M32.06,1.64c0,2.35-1.88,2.35-1.88,4.7,0,2.35,1.88,2.35,1.88,4.7s-1.88,2.35-1.88,4.7c0,2.35,1.88,2.35,1.88,4.71s-1.88,2.35-1.88,4.71"/>
        <path class="cls-1" d="M44.77,1.64c0,2.35-1.88,2.35-1.88,4.7,0,2.35,1.88,2.35,1.88,4.7,0,2.35-1.88,2.35-1.88,4.7,0,2.35,1.88,2.35,1.88,4.71,0,2.35-1.88,2.35-1.88,4.71"/>
        <path class="cls-1" d="M55.61,25.15c0-2.35,1.88-2.35,1.88-4.71s-1.88-2.35-1.88-4.71c0-2.35,1.88-2.35,1.88-4.7s-1.88-2.35-1.88-4.7,1.88-2.35,1.88-4.7"/>
      </g>
      <line class="cls-1" x1="28.61" y1="116.39" x2="33.83" y2="93.86"/>
      <line class="cls-1" x1="25.43" y1="90.79" x2="20.16" y2="113.49"/>
      <circle class="cls-1" cx="20.61" cy="125.89" r="12.41"/>
      <circle class="cls-1" cx="20.61" cy="125.88" r="6.16"/>
      <line class="cls-1" x1="29.83" y1="111.12" x2="56.79" y2="111.12"/>
      <line class="cls-1" x1="31.78" y1="102.7" x2="54.84" y2="102.7"/>
    </g>
  </g>
</svg>