<?xml version="1.0" encoding="UTF-8"?>
<svg id="Layer_2" data-name="Layer 2" xmlns="http://www.w3.org/2000/svg" viewBox="0 0 199.88 107.19">
  <defs>
    <style>
      .cls-1 {
        fill: none;
        stroke: #231f20;
        stroke-linecap: round;
        stroke-linejoin: round;
        stroke-width: 3.29px;
      }
    </style>
  </defs>
  <g id="Layer_1-2" data-name="Layer 1">
    <g>
      <circle class="cls-1" cx="51.84" cy="71.61" r="33.93"/>
      <path class="cls-1" d="M117.5,76.27c2.27,16.53,16.45,29.27,33.61,29.27,18.74,0,33.93-15.19,33.93-33.93s-15.19-33.93-33.93-33.93c-17.16,0-31.34,12.74-33.61,29.27"/>
      <circle class="cls-1" cx="51.84" cy="72.6" r="26.92"/>
      <circle class="cls-1" cx="151.11" cy="71.61" r="26.92"/>
      <circle class="cls-1" cx="51.84" cy="71.61" r="6.34"/>
      <circle class="cls-1" cx="151.04" cy="71.61" r="6.34"/>
      <circle class="cls-1" cx="108.5" cy="71.61" r="10.13"/>
      <line class="cls-1" x1="108.5" y1="71.61" x2="108.5" y2="90.49"/>
      <line class="cls-1" x1="104.16" y1="91.02" x2="112.7" y2="91.02"/>
      <polyline class="cls-1" points="54.1 65.69 74.4 11.7 54.1 11.7"/>
      <line class="cls-1" x1="70.57" y1="21.9" x2="126.18" y2="21.9"/>
      <line class="cls-1" x1="68.49" y1="27.42" x2="101.89" y2="63.94"/>
      <line class="cls-1" x1="129.58" y1="13.81" x2="111.27" y2="61.87"/>
      <line class="cls-1" x1="126.18" y1="21.9" x2="148" y2="66.07"/>
      <line class="cls-1" x1="118.63" y1="71.61" x2="144.7" y2="71.61"/>
      <path class="cls-1" d="M50.02,7.34c-1.41-.14-2.95,.2-4.22,.65-2.41,.85-4.5,2.49-5.95,4.59-1.45,2.1-2.24,4.62-2.24,7.17,0,6.86,5.56,12.42,12.42,12.42,0,0,7.38,.71,7.1-5.02-.23-4.83-7.16-2.42-9.46-5.29-.48-.6-.75-1.37-.76-2.14,0-.86,.33-1.73,.93-2.35,1.11-1.15,2.75-1.15,4.1-1.86,3.75-1.99,2.01-7.78-1.91-8.17Z"/>
      <path class="cls-1" d="M109.53,3.41h0c-1.76,2.64,.13,6.17,3.3,6.17h9.94c1.04,0,2.04,.41,2.78,1.14l1.59,1.56c.74,.73,1.74,1.14,2.78,1.14h11.26c1.14,0,2.26-.49,3.01-1.35,2.03-2.34,2.45-4.81,2.33-6.76-.12-2.07-1.89-3.66-3.97-3.66h-29.72c-1.33,0-2.57,.66-3.3,1.77Z"/>
      <path class="cls-1" d="M10.98,57.82s-8.65,14.06,1.95,35.64"/>
      <path class="cls-1" d="M2.82,65.65s-3.58,9.57,1.77,22.65"/>
      <path class="cls-1" d="M192.71,71.36s4.17-15.97-12.26-33.51"/>
      <path class="cls-1" d="M198.23,61.48s.63-10.2-8.31-21.15"/>
    </g>
  </g>
</svg>