<?xml version="1.0" encoding="UTF-8"?>
<svg id="Layer_2" data-name="Layer 2" xmlns="http://www.w3.org/2000/svg" viewBox="0 0 112.01 113.35">
  <defs>
    <style>
      .cls-1 {
        fill: none;
        stroke: #231f20;
        stroke-linecap: round;
        stroke-linejoin: round;
        stroke-width: 3.29px;
      }
    </style>
  </defs>
  <g id="Layer_1-2" data-name="Layer 1">
    <g>
      <rect class="cls-1" x="19.68" y="21.02" width="72.65" height="108.72" rx="2.97" ry="2.97" transform="translate(131.39 19.38) rotate(90)"/>
      <path class="cls-1" d="M29.71,37.51v-3.31c0-3.06-2.5-5.56-5.56-5.56h0c-3.06,0-5.56,2.5-5.56,5.56v3.31"/>
      <line class="cls-1" x1="18.43" y1="57.23" x2="30.12" y2="57.23"/>
      <circle class="cls-1" cx="69.75" cy="75.34" r="25.97"/>
      <circle class="cls-1" cx="69.75" cy="75.39" r="16.37"/>
      <path class="cls-1" d="M76.33,75.98c-.12-7.71-7.21-7.31-7.21-7.31"/>
      <polyline class="cls-1" points="93.4 39.06 84.89 24.73 54.54 24.73 45.83 39.06"/>
      <line class="cls-1" x1="69.75" y1="15.82" x2="69.75" y2="1.64"/>
      <line class="cls-1" x1="79.32" y1="15.73" x2="89.31" y2="5.67"/>
      <line class="cls-1" x1="60.19" y1="15.73" x2="50.19" y2="5.67"/>
    </g>
  </g>
</svg>