<?xml version="1.0" encoding="UTF-8"?>
<svg id="Layer_2" data-name="Layer 2" xmlns="http://www.w3.org/2000/svg" viewBox="0 0 149.55 123.65">
  <defs>
    <style>
      .cls-1 {
        fill: none;
        stroke: #231f20;
        stroke-linecap: round;
        stroke-linejoin: round;
        stroke-width: 3.29px;
      }
    </style>
  </defs>
  <g id="Layer_1-2" data-name="Layer 1">
    <g>
      <g>
        <path class="cls-1" d="M53.72,76.81c.37-.27,.73-.57,1.07-.9L108.54,23.64c3.89-3.79,3.98-10.07,.19-13.96h0c-3.79-3.89-10.07-3.98-13.96-.19L41.02,61.76c-.34,.33-.65,.68-.93,1.04"/>
        <path class="cls-1" d="M1.68,91.61l2.69,19.57c.14,.99,.58,1.91,1.28,2.63l6.94,7.14c1.35,1.39,3.59,1.42,4.98,.07l38.14-37.1c1.39-1.35,1.42-3.59,.07-4.98l-18.61-19.14c-1.35-1.39-3.59-1.42-4.98-.07L2.82,88.29c-.89,.86-1.31,2.09-1.14,3.32Z"/>
        <path class="cls-1" d="M31.59,60.31l-4.27-4.39c-.59-.6-1.56-.62-2.16-.03l-16.01,15.57c-.6,.59-.62,1.56-.03,2.16l4.27,4.39"/>
        <line class="cls-1" x1="46.77" y1="69.67" x2="78.06" y2="39.23"/>
        <line class="cls-1" x1="98.92" y1="19.23" x2="83.27" y2="34.45"/>
        <line class="cls-1" x1="41.94" y1="53.5" x2="45.62" y2="57.29"/>
        <line class="cls-1" x1="50.98" y1="52.08" x2="47.29" y2="48.3"/>
        <line class="cls-1" x1="52.67" y1="43.07" x2="56.35" y2="46.86"/>
        <line class="cls-1" x1="57.96" y1="37.93" x2="61.64" y2="41.71"/>
        <line class="cls-1" x1="63.27" y1="32.76" x2="66.95" y2="36.54"/>
        <line class="cls-1" x1="68.59" y1="27.59" x2="72.27" y2="31.37"/>
        <line class="cls-1" x1="74.11" y1="22.21" x2="77.79" y2="26"/>
        <line class="cls-1" x1="83.07" y1="20.87" x2="79.39" y2="17.08"/>
        <line class="cls-1" x1="88.52" y1="15.57" x2="84.84" y2="11.78"/>
        <line class="cls-1" x1="90.11" y1="6.66" x2="93.79" y2="10.44"/>
        <line class="cls-1" x1="97.05" y1="1.84" x2="98.26" y2="6.98"/>
        <line class="cls-1" x1="105.52" y1="1.64" x2="104.06" y2="6.72"/>
        <line class="cls-1" x1="112.73" y1="6.12" x2="108.95" y2="9.8"/>
        <line class="cls-1" x1="111.45" y1="14.79" x2="116.58" y2="13.58"/>
        <line class="cls-1" x1="110.82" y1="20.28" x2="115.9" y2="21.74"/>
        <line class="cls-1" x1="107.38" y1="24.76" x2="111.06" y2="28.54"/>
        <line class="cls-1" x1="102.03" y1="29.97" x2="105.71" y2="33.75"/>
        <line class="cls-1" x1="100.33" y1="38.99" x2="96.65" y2="35.2"/>
        <line class="cls-1" x1="94.97" y1="44.2" x2="91.29" y2="40.41"/>
        <line class="cls-1" x1="85.91" y1="45.64" x2="89.59" y2="49.43"/>
        <line class="cls-1" x1="84.28" y1="54.6" x2="80.6" y2="50.81"/>
        <line class="cls-1" x1="75.24" y1="56.02" x2="78.93" y2="59.8"/>
        <line class="cls-1" x1="69.88" y1="61.24" x2="73.56" y2="65.02"/>
        <line class="cls-1" x1="68.17" y1="70.27" x2="64.49" y2="66.48"/>
        <line class="cls-1" x1="62.79" y1="75.49" x2="59.11" y2="71.71"/>
        <path class="cls-1" d="M41.44,65.52l-7.94,7.73c-2.47,2.41-2.53,6.4-.12,8.87h0c2.41,2.47,6.4,2.53,8.87,.12l7.94-7.73"/>
        <path class="cls-1" d="M9.23,93.4l2.62,15.2c.14,.49,.42,.97,.81,1.37l1.14,1.17c.75,.77,1.83,.95,2.4,.39l15.72-15.28c.57-.56,.43-1.64-.32-2.41l-10.34-10.63c-.75-.77-1.83-.95-2.4-.39l-9.31,9.05c-.37,.36-.48,.92-.31,1.53Z"/>
      </g>
      <polyline class="cls-1" points="147.9 43.11 143.55 38.44 137.37 40.06 133.02 35.39 126.85 37.02 122.5 32.35"/>
      <polyline class="cls-1" points="118 39.41 119.81 43.24 124.01 43.76 125.83 47.59 130.04 48.12 131.86 51.95"/>
      <polyline class="cls-1" points="125.78 25.29 129.43 27.21 132.89 24.99 136.54 26.9 140.02 24.68 143.68 26.6"/>
    </g>
  </g>
</svg>