<?xml version="1.0" encoding="UTF-8"?>
<svg id="Layer_2" data-name="Layer 2" xmlns="http://www.w3.org/2000/svg" viewBox="0 0 72.33 177.4">
  <defs>
    <style>
      .cls-1 {
        fill: none;
        stroke: #231f20;
        stroke-linecap: round;
        stroke-linejoin: round;
        stroke-width: 3.29px;
      }
    </style>
  </defs>
  <g id="Layer_1-2" data-name="Layer 1">
    <g>
      <g>
        <rect class="cls-1" x="4.87" y="66.11" width="69.45" height="13.02" rx=".44" ry=".44" transform="translate(114.12 36.73) rotate(92.88)"/>
        <polyline class="cls-1" points="47.57 38.85 54.87 4.19 48.89 3.89 30.37 25.92 34.97 37.62"/>
        <line class="cls-1" x1="30.16" y1="123.72" x2="43.5" y2="124.39"/>
        <line class="cls-1" x1="29.81" y1="135.23" x2="43.15" y2="135.91"/>
        <line class="cls-1" x1="23.81" y1="152.23" x2="46.9" y2="153.4"/>
        <path class="cls-1" d="M32.85,77.08s-11.88-.76-18.67,8.37c-6.79,9.13,.75,17.68,.52,24.88-.23,7.2-8.26,14.68-11.32,23.57-3.05,8.89-5.92,36.43,26.94,41.28,6.95,1.03,14.23,.81,20.84-1.78,4.68-1.83,8.83-4.83,12.07-8.66,2.28-2.69,4.13-5.75,5.46-9.01,2.27-5.53,2.45-12.24,1.29-18.06-.2-1.02-.46-2.03-.79-3.02-.75-2.28-1.83-4.44-3.08-6.48-1.22-1.98-2.75-3.77-3.86-5.8-2.21-4.03-2.64-8.52-1.03-12.84,.17-.46,.36-.92,.57-1.37,.77-1.67,1.73-3.22,2.36-4.96,1.29-3.54,2.72-10.3-1.92-12.18-1.62-.66-3.49-.09-4.99,.81-2.28,1.39-4.04,3.59-6.93,3.4-2.52-.16-4.27-2.12-5.11-4.37"/>
        <circle class="cls-1" cx="58.41" cy="142.93" r=".49"/>
        <circle class="cls-1" cx="55.54" cy="148.09" r=".49"/>
        <line class="cls-1" x1="47.78" y1="4.98" x2="43.93" y2="1.64"/>
        <line class="cls-1" x1="44.91" y1="8.27" x2="41.06" y2="4.94"/>
        <line class="cls-1" x1="42.04" y1="11.56" x2="38.18" y2="8.23"/>
        <line class="cls-1" x1="39.16" y1="14.85" x2="35.31" y2="11.52"/>
        <line class="cls-1" x1="36.29" y1="18.15" x2="32.43" y2="14.81"/>
        <line class="cls-1" x1="29.56" y1="18.1" x2="33.41" y2="21.44"/>
        <line class="cls-1" x1="30.54" y1="24.73" x2="26.68" y2="21.4"/>
      </g>
      <g>
        <polyline class="cls-1" points="23.49 65.64 17.91 50.81 5.57 55.46 11.15 70.29"/>
        <line class="cls-1" x1="6.97" y1="59.17" x2="18.69" y2="54.76"/>
        <ellipse class="cls-1" cx="9.42" cy="70.94" rx="1.85" ry=".71" transform="translate(-24.38 7.86) rotate(-20.62)"/>
        <ellipse class="cls-1" cx="21.76" cy="66.3" rx="1.85" ry=".71" transform="translate(-21.95 11.91) rotate(-20.62)"/>
      </g>
      <g>
        <polyline class="cls-1" points="64.25 33.27 59.25 30.61 63.87 45.76"/>
        <ellipse class="cls-1" cx="62.1" cy="46.3" rx="1.85" ry=".71" transform="translate(-10.8 20.13) rotate(-16.96)"/>
      </g>
      <g>
        <polyline class="cls-1" points="58.98 79.69 64.96 65.02 59.74 67.21"/>
        <ellipse class="cls-1" cx="60.69" cy="80.39" rx=".71" ry="1.85" transform="translate(-36.65 106.25) rotate(-67.83)"/>
      </g>
    </g>
  </g>
</svg>