<?xml version="1.0" encoding="UTF-8"?>
<svg id="Layer_2" data-name="Layer 2" xmlns="http://www.w3.org/2000/svg" viewBox="0 0 112.58 172.78">
  <defs>
    <style>
      .cls-1 {
        fill: none;
        stroke: #231f20;
        stroke-linecap: round;
        stroke-linejoin: round;
        stroke-width: 3.29px;
      }
    </style>
  </defs>
  <g id="Layer_1-2" data-name="Layer 1">
    <g>
      <path class="cls-1" d="M110.93,13.47c.08-2.4-2.06-3.9-4.29-3-12.85,5.18-51.29,22.94-76.15,58.44C6.28,103.48,2.28,144.38,1.65,159.3c-.13,2.98,2.57,4.86,5.32,3.73,13.8-5.7,50.87-23.44,75.08-58,24.86-35.5,28.41-77.7,28.89-91.54Z"/>
      <ellipse class="cls-1" cx="57.26" cy="85.55" rx="29.77" ry="22.69" transform="translate(-45.66 83.38) rotate(-55)"/>
      <path class="cls-1" d="M89.71,72.93c-6.01-28.64-31.68-22.19-31.68-22.19"/>
      <path class="cls-1" d="M24.35,98.83c6.01,28.64,31.68,22.19,31.68,22.19"/>
      <circle class="cls-1" cx="91.74" cy="36.32" r="6.77"/>
      <polygon class="cls-1" points="33.18 141.64 12.79 127.36 39.83 132.14 19.44 117.86 33.18 141.64"/>
      <g>
        <path class="cls-1" d="M65.57,150.67l4.11,13.36c1.63,5.29,7.29,8.29,12.58,6.66h0c5.29-1.63,8.29-7.29,6.66-12.58l-4.11-13.36-13.35-9.19-5.89,15.1Z"/>
        <path class="cls-1" d="M47.11,22.11l-4.11-13.36c-1.63-5.29-7.29-8.29-12.58-6.66h0c-5.29,1.63-8.29,7.29-6.66,12.58l4.11,13.36,13.35,9.19,5.89-15.1Z"/>
        <line class="cls-1" x1="71.46" y1="135.57" x2="41.22" y2="37.21"/>
      </g>
    </g>
  </g>
</svg>