<?xml version="1.0" encoding="UTF-8"?>
<svg id="Layer_2" data-name="Layer 2" xmlns="http://www.w3.org/2000/svg" viewBox="0 0 76.57 119.51">
  <defs>
    <style>
      .cls-1 {
        fill: none;
        stroke: #231f20;
        stroke-linecap: round;
        stroke-linejoin: round;
        stroke-width: 3.29px;
      }
    </style>
  </defs>
  <g id="Layer_1-2" data-name="Layer 1">
    <g>
      <g>
        <circle class="cls-1" cx="45.22" cy="41.22" r="19.07"/>
        <path class="cls-1" d="M28.23,32.54s11.94,15.12,33.98,17.34"/>
        <path class="cls-1" d="M37.09,25.27s9.07,11.48,25.8,13.17"/>
        <path class="cls-1" d="M27.98,49.38L2.64,103.12c-2.3,4.51-.5,10.08,4.01,12.38l1.02,.52c4.51,2.3,10.08,.5,12.38-4.01l28.65-52.05"/>
        <line class="cls-1" x1="32.21" y1="66.7" x2="26.83" y2="77.25"/>
        <line class="cls-1" x1="7.02" y1="116.05" x2="6.1" y2="117.87"/>
        <path class="cls-1" d="M54.96,48.64c3.81-12.89-1.07-24.41-1.07-24.41l-10.3,20.17"/>
        <path class="cls-1" d="M53.89,24.23s-12.19,2.81-20.4,13.45"/>
        <line class="cls-1" x1="24.27" y1="82.26" x2="23.92" y2="82.95"/>
        <line class="cls-1" x1="57.63" y1="16.99" x2="65.46" y2="1.64"/>
        <line class="cls-1" x1="71.82" y1="17.21" x2="65.89" y2="22.43"/>
        <line class="cls-1" x1="48.38" y1="13.49" x2="49.13" y2="5.63"/>
      </g>
      <line class="cls-1" x1="74.93" y1="28.16" x2="69.88" y2="29.71"/>
      <line class="cls-1" x1="40.62" y1="14.78" x2="38.91" y2="9.78"/>
    </g>
  </g>
</svg>