<?xml version="1.0" encoding="UTF-8"?>
<svg id="Layer_2" data-name="Layer 2" xmlns="http://www.w3.org/2000/svg" viewBox="0 0 169.78 141.32">
  <defs>
    <style>
      .cls-1 {
        fill: none;
        stroke: #231f20;
        stroke-linecap: round;
        stroke-linejoin: round;
        stroke-width: 3.29px;
      }
    </style>
  </defs>
  <g id="Layer_1-2" data-name="Layer 1">
    <g>
      <circle class="cls-1" cx="70.24" cy="119.38" r="19"/>
      <circle class="cls-1" cx="70.24" cy="119.38" r="8.08"/>
      <circle class="cls-1" cx="137.05" cy="127.13" r="12.54"/>
      <circle class="cls-1" cx="137.05" cy="127.13" r="2.46"/>
      <line class="cls-1" x1="87.75" y1="127.13" x2="124.51" y2="127.13"/>
      <path class="cls-1" d="M149.59,127.13h9.84c4.79,0,8.71-3.8,8.71-8.44v-9.83c0-4.64-3.92-8.44-8.71-8.44h-47.35c-1.81,0-3.57-.53-5.08-1.52l-32.73-21.49c-1.51-.99-3.28-1.52-5.08-1.52h-27.39c-5.12,0-9.26,4.15-9.26,9.26v13.41c0,1.2,.23,2.39,.69,3.5l7.88,19.31c1.42,3.48,4.81,5.76,8.58,5.76h3.22"/>
      <path class="cls-1" d="M152.53,100.16c.23-.68,.36-1.4,.36-2.15v-3.8c0-3.69-3.02-6.7-6.7-6.7h-24.2c-3.69,0-6.7,3.02-6.7,6.7v3.8c0,.73,.12,1.44,.34,2.1"/>
      <line class="cls-1" x1="127.12" y1="87.51" x2="127.12" y2="78.31"/>
      <line class="cls-1" x1="88.89" y1="46.02" x2="103.08" y2="62.15"/>
      <line class="cls-1" x1="114.72" y1="56.25" x2="117.45" y2="62.65"/>
      <line class="cls-1" x1="102.7" y1="28.5" x2="110.17" y2="46.02"/>
      <path class="cls-1" d="M56.02,75.17L23.88,4.4c-.77-1.68-2.45-2.76-4.3-2.76H6.38C3.76,1.64,1.64,3.76,1.64,6.38h0c0,2.62,2.12,4.74,4.74,4.74h6.37c1.87,0,3.57,1.1,4.33,2.81l27.43,61.55"/>
      <line class="cls-1" x1="168.02" y1="113.71" x2="157.75" y2="113.71"/>
      <line class="cls-1" x1="43.54" y1="86.67" x2="67.46" y2="86.67"/>
      <line class="cls-1" x1="43.54" y1="96.44" x2="54.89" y2="96.44"/>
    </g>
  </g>
</svg>