<?xml version="1.0" encoding="UTF-8"?>
<svg id="Layer_2" data-name="Layer 2" xmlns="http://www.w3.org/2000/svg" viewBox="0 0 130.95 102.23">
  <defs>
    <style>
      .cls-1 {
        fill: none;
        stroke: #231f20;
        stroke-linecap: round;
        stroke-linejoin: round;
        stroke-width: 3.29px;
      }
    </style>
  </defs>
  <g id="Layer_1-2" data-name="Layer 1">
    <g>
      <path class="cls-1" d="M90.33,23.93c-6.67-1.92-13.73-2.6-20.61-2.85-23.64-.85-50.22,6.96-63.34,28.29C-1.25,61.78,.27,78.45,11.42,88.24c6.91,6.06,16.11,8.88,24.94,10.66,16.24,3.28,36.13,2.35,49.87-7.92,2.89-2.16,5.51-4.79,7.12-8.01,2.06-4.11,2.37-8.84,3.35-13.33,.89-4.09,2.52-7.62,5.66-10.43,3.22-2.89,7.51-4.98,9.76-8.84,.45-.77,.79-1.59,1-2.5,1.74-7.4-4.67-14.39-11.11-18.68"/>
      <g>
        <path class="cls-1" d="M78.41,44.24c5.54-2.58,13.21-7.31,21.28-13.3,14.47-10.74,31.32-26.47,29.47-28.96-1.85-2.49-21.7,9.19-36.17,19.94-8.06,5.99-14.81,11.97-18.88,16.52"/>
        <path class="cls-1" d="M90.51,37.34c-1.16-6.05-6.29-8.48-6.29-8.48"/>
        <polygon class="cls-1" points="57.18 48.52 63.87 57.54 78.41 44.24 74.11 38.44 57.18 48.52"/>
        <line class="cls-1" x1="59.56" y1="51.27" x2="66.77" y2="46.81"/>
      </g>
      <ellipse class="cls-1" cx="68.72" cy="69.41" rx="11.54" ry="7.27"/>
      <line class="cls-1" x1="61.89" y1="54.86" x2="65.25" y2="51.86"/>
      <circle class="cls-1" cx="15.23" cy="71.8" r="6.29"/>
      <circle class="cls-1" cx="30.1" cy="84.38" r="6.29"/>
      <circle class="cls-1" cx="19.49" cy="51.86" r="6.29"/>
      <circle class="cls-1" cx="51.26" cy="87.57" r="6.29"/>
      <circle class="cls-1" cx="57.18" cy="35.15" r="6.29"/>
      <circle class="cls-1" cx="36.95" cy="40.52" r="6.29"/>
    </g>
  </g>
</svg>