<?xml version="1.0" encoding="UTF-8"?>
<svg id="Layer_2" data-name="Layer 2" xmlns="http://www.w3.org/2000/svg" viewBox="0 0 102.02 136.58">
  <defs>
    <style>
      .cls-1 {
        fill: none;
        stroke: #231f20;
        stroke-linecap: round;
        stroke-linejoin: round;
        stroke-width: 3.29px;
      }
    </style>
  </defs>
  <g id="Layer_1-2" data-name="Layer 1">
    <g>
      <path class="cls-1" d="M57.13,125.78c3.59,5.44,10.77,7.84,10.77,7.84,12.36,4.31,26.01-2.27,30.32-14.64l.83-2.37c4.31-12.36-2.27-26.01-14.64-30.32l-40.41-14.1c-12.36-4.31-26.01,2.27-30.32,14.64l-.83,2.37c-4.31,12.36,2.27,26.01,14.64,30.32,0,0,6.67,2.8,13.37,.24"/>
      <path class="cls-1" d="M51.1,110.57l-9.35,8.06c-1.5,1.29-1.79,3.58-.53,5.1,3.49,4.2,7.78,5.88,12.95,4.79,2.05-.43,3.42-2.37,3.03-4.43l-2.32-12.2c-.33-1.75-2.44-2.49-3.79-1.32Z"/>
      <path class="cls-1" d="M39.62,111c2.23-1.4,3.87-3.51,5.76-5.31,2.75-2.62,6.81-4.04,10.53-2.73,2.5,.88,4.33,2.59,5.3,5.07,1.39,3.52,1.07,7.52,2.25,11.14,.93,2.85,2.68,5.62,5.41,7.03,2.94,1.52,6.28,2,9.56,1.47,5.99-.97,11.63-5.21,13.65-11.02,0,0,.59-1.7,.59-1.7,3.09-8.85-3.04-19.11-13.61-22.8l-34.56-12.06c-10.57-3.69-21.75,.54-24.84,9.39l-.59,1.7c-1.44,4.13-.77,8.82,1.08,12.71,2.37,4.99,6.9,9.06,12.66,9.1,.14,0,.28,0,.41,0,2.26-.06,4.49-.76,6.4-1.96Z"/>
      <path class="cls-1" d="M16.57,81.14l-9.5-3.32c-1.52-.53-3.19,.27-3.72,1.8l-1.29,3.7c-1.32,3.78,.68,7.92,4.46,9.24l5.17,1.8"/>
      <path class="cls-1" d="M17.36,35.1l-1.1,3.16c-.98,2.81,.5,5.89,3.32,6.87l6.61,2.3c2.23,.78,4.67-.4,5.45-2.63l1.66-4.76c.38-1.08-.19-2.26-1.27-2.64l-11.29-3.94c-1.38-.48-2.89,.25-3.37,1.63Z"/>
      <line class="cls-1" x1="17.73" y1="44.05" x2="6" y2="77.67"/>
      <line class="cls-1" x1="27.29" y1="47.83" x2="15.76" y2="80.86"/>
      <polyline class="cls-1" points="78.37 91.88 64.1 99.05 70.58 101.31 59.87 105.69"/>
      <polyline class="cls-1" points="63.25 118.44 86.61 108.36 80.13 106.1 90.17 101.06"/>
      <circle class="cls-1" cx="28.56" cy="22.51" r="4.31"/>
      <circle class="cls-1" cx="43.34" cy="14.76" r="6.32"/>
      <circle class="cls-1" cx="31.54" cy="4.19" r="2.55"/>
    </g>
  </g>
</svg>