<?xml version="1.0" encoding="UTF-8"?>
<svg id="Layer_2" data-name="Layer 2" xmlns="http://www.w3.org/2000/svg" viewBox="0 0 166.72 160.81">
  <defs>
    <style>
      .cls-1 {
        fill: none;
        stroke: #231f20;
        stroke-linecap: round;
        stroke-linejoin: round;
        stroke-width: 3.29px;
      }
    </style>
  </defs>
  <g id="Layer_1-2" data-name="Layer 1">
    <g>
      <path class="cls-1" d="M8.67,125.84c-7.23,13.25-9.22,23.94-4.38,29.46,10.86,12.37,51.96-5.94,91.82-40.9,39.85-34.96,63.36-73.33,52.5-85.71-10.86-12.37-51.96,5.94-91.82,40.9-11.08,9.72-20.89,19.7-29.06,29.31"/>
      <path class="cls-1" d="M21.97,105.99c-4.06,5.21-7.59,10.27-10.51,15.05"/>
      <line class="cls-1" x1="38.65" y1="125.16" x2="4.29" y2="155.3"/>
      <line class="cls-1" x1="148.61" y1="28.69" x2="46.05" y2="118.66"/>
      <path class="cls-1" d="M32.38,129.97s-10.01-13.05-23.21-8.26c-2.02,.73-2.26,3.46-.26,4.25,5.41,2.13,12.8,6.34,12.73,13.43"/>
      <path class="cls-1" d="M40.41,107.58s-10.01-13.05-23.21-8.26c-2.02,.73-2.26,3.46-.26,4.25,5.41,2.13,12.8,6.34,12.73,13.43l10.74-9.42Z"/>
      <path class="cls-1" d="M57.37,126.91s-10.01-13.05-23.21-8.26c-2.02,.73-2.26,3.46-.26,4.25,5.41,2.13,12.8,6.34,12.73,13.43l10.74-9.42Z"/>
      <path class="cls-1" d="M145.05,57.32c2.14,2.43,.73,3.67,2.86,6.1,2.14,2.43,3.54,1.2,5.68,3.63,2.14,2.43,.73,3.67,2.87,6.1s3.55,1.2,5.69,3.64c2.14,2.44,.73,3.67,2.87,6.11"/>
      <path class="cls-1" d="M97.35,2.93c2.15,2.46,.74,3.7,2.89,6.16,2.15,2.46,3.57,1.21,5.73,3.67,2.16,2.46,.74,3.7,2.89,6.16s3.58,1.22,5.74,3.68c2.16,2.46,.74,3.71,2.9,6.17"/>
      <path class="cls-1" d="M140.85,66.59c2.59,2.95,.88,4.45,3.48,7.41s4.3,1.46,6.89,4.41c2.59,2.96,.89,4.45,3.48,7.41,2.6,2.96,4.3,1.46,6.9,4.42,2.6,2.96,.89,4.46,3.49,7.42"/>
      <path class="cls-1" d="M108.1,32.71c-2.6-2.96-.89-4.46-3.49-7.42-2.6-2.96-4.3-1.46-6.9-4.42-2.59-2.96-.89-4.45-3.48-7.41-2.59-2.95-4.3-1.46-6.89-4.41-2.59-2.95-.88-4.45-3.48-7.41"/>
      <path class="cls-1" d="M134.56,74.17c2.02,2.3,.69,3.47,2.71,5.77,2.02,2.3,3.35,1.14,5.37,3.44,2.02,2.3,.69,3.47,2.71,5.77,2.02,2.31,3.35,1.14,5.38,3.45s.69,3.47,2.72,5.78"/>
      <path class="cls-1" d="M81.22,13.38c2,2.29,.68,3.44,2.69,5.73,2.01,2.29,3.33,1.13,5.33,3.41,2.01,2.29,.68,3.44,2.69,5.73,2.01,2.29,3.33,1.13,5.34,3.42,2.01,2.29,.69,3.45,2.7,5.74"/>
      <path class="cls-1" d="M91.83,42.15c-1.48-1.68-.51-2.53-1.98-4.22-1.48-1.68-2.45-.83-3.92-2.51-1.47-1.68-.5-2.53-1.98-4.21-1.47-1.68-2.44-.83-3.92-2.51-1.47-1.68-.5-2.53-1.98-4.21"/>
      <path class="cls-1" d="M128.17,81.62c1.47,1.68,.5,2.53,1.98,4.21,1.47,1.68,2.44,.83,3.92,2.51,1.47,1.68,.5,2.53,1.98,4.21,1.48,1.68,2.45,.83,3.92,2.51,1.48,1.68,.51,2.53,1.98,4.22"/>
    </g>
  </g>
</svg>