<?xml version="1.0" encoding="UTF-8"?>
<svg id="Layer_2" data-name="Layer 2" xmlns="http://www.w3.org/2000/svg" viewBox="0 0 162.14 168.49">
  <defs>
    <style>
      .cls-1 {
        fill: none;
        stroke: #231f20;
        stroke-linecap: round;
        stroke-linejoin: round;
        stroke-width: 3.29px;
      }
    </style>
  </defs>
  <g id="Layer_1-2" data-name="Layer 1">
    <g>
      <polyline class="cls-1" points="47.03 74.06 1.64 166.85 160.5 166.85 115.11 73.33"/>
      <line class="cls-1" x1="34.4" y1="73.16" x2="81.07" y2="166.85"/>
      <path class="cls-1" d="M41,86.4s30.24,10.23,80.46,0l5.96-13.07"/>
      <polyline class="cls-1" points="61.63 166.85 41.64 126.1 20.46 166.85"/>
      <path class="cls-1" d="M28.69,151l3.78,15.84c10.61-27.38,9.16-40.75,9.16-40.75"/>
      <path class="cls-1" d="M67.16,106.35s26.93,29.32,69.65,44.21"/>
      <path class="cls-1" d="M70.93,38.73c.04-.3,.1-.6,.1-.91,0-4.19-3.84-7.59-8.58-7.59-1.95,0-3.72,.6-5.16,1.56-2.04-3.42-6.05-5.78-10.72-5.78-6.72,0-12.16,4.81-12.16,10.75,0,.63,.09,1.24,.21,1.84h-1.2c-4.78,0-8.68,3.91-8.68,8.68s3.91,8.68,8.68,8.68h36.38c4.78,0,8.68-3.91,8.68-8.68,0-4.39-3.31-8-7.54-8.57Z"/>
      <g>
        <line class="cls-1" x1="74.35" y1="12.65" x2="74.35" y2="17.63"/>
        <line class="cls-1" x1="76.85" y1="15.14" x2="71.86" y2="15.14"/>
      </g>
      <g>
        <line class="cls-1" x1="107.86" y1="54.97" x2="107.86" y2="59.96"/>
        <line class="cls-1" x1="110.36" y1="57.47" x2="105.37" y2="57.47"/>
      </g>
      <g>
        <line class="cls-1" x1="15.57" y1="22.5" x2="15.57" y2="27.49"/>
        <line class="cls-1" x1="18.06" y1="25" x2="13.08" y2="25"/>
      </g>
      <g>
        <line class="cls-1" x1="145.77" y1="42.94" x2="145.77" y2="47.93"/>
        <line class="cls-1" x1="148.26" y1="45.44" x2="143.27" y2="45.44"/>
      </g>
      <path class="cls-1" d="M107.84,22.48c2.19,5.84,7.83,9.99,14.43,9.99,8.51,0,15.41-6.9,15.41-15.41s-6.9-15.41-15.41-15.41c5.47,14.97-.57,20.96-14.43,20.84Z"/>
    </g>
  </g>
</svg>