<?xml version="1.0" encoding="UTF-8"?>
<svg id="Layer_2" data-name="Layer 2" xmlns="http://www.w3.org/2000/svg" viewBox="0 0 113.55 140.63">
  <defs>
    <style>
      .cls-1 {
        fill: none;
        stroke: #231f20;
        stroke-linecap: round;
        stroke-linejoin: round;
        stroke-width: 3.29px;
      }
    </style>
  </defs>
  <g id="Layer_1-2" data-name="Layer 1">
    <g>
      <path class="cls-1" d="M48.11,130.14c2.08,6.63,9.21,10.35,15.84,8.26h0c6.63-2.08,10.35-9.21,8.26-15.84l-15.51-49.35"/>
      <path class="cls-1" d="M111.91,67.09c-8.45-19.4-27.79-32.96-50.3-32.96-30.28,0-54.83,24.55-54.83,54.83,0,3.79,.38,7.48,1.11,11.05,0,0,9.99-23.47,31.76-8.07,0,0,9.92-35.4,41.55-13.13,4.96-13.67,14.55-18.76,30.71-11.72Z"/>
      <path class="cls-1" d="M81.2,78.81s-16.92-48.89-36.55-42.01c-19.02,7.22-5,55.14-5,55.14"/>
      <line class="cls-1" x1="42.81" y1="29.82" x2="44.89" y2="36.72"/>
      <line class="cls-1" x1="65.22" y1="20.64" x2="65.22" y2="25.03"/>
      <line class="cls-1" x1="51.92" y1="22.8" x2="51.92" y2="27.19"/>
      <line class="cls-1" x1="31.84" y1="25.13" x2="31.84" y2="29.52"/>
      <line class="cls-1" x1="41.31" y1="14.04" x2="41.31" y2="18.42"/>
      <line class="cls-1" x1="24.69" y1="14.62" x2="24.69" y2="19.01"/>
      <line class="cls-1" x1="20.81" y1="33.94" x2="20.81" y2="38.33"/>
      <line class="cls-1" x1="12.17" y1="46.76" x2="12.17" y2="51.14"/>
      <line class="cls-1" x1="12.17" y1="25.13" x2="12.17" y2="29.52"/>
      <line class="cls-1" x1="56.72" y1="10.41" x2="56.72" y2="14.79"/>
      <line class="cls-1" x1="77.77" y1="25.76" x2="77.77" y2="30.14"/>
      <line class="cls-1" x1="90.4" y1="29.52" x2="90.4" y2="33.9"/>
      <line class="cls-1" x1="84.91" y1="16.77" x2="84.91" y2="21.15"/>
      <line class="cls-1" x1="72.45" y1="9.64" x2="72.45" y2="14.03"/>
      <line class="cls-1" x1="2.7" y1="55.14" x2="2.7" y2="59.53"/>
      <line class="cls-1" x1="1.64" y1="37.84" x2="1.64" y2="42.22"/>
      <line class="cls-1" x1="102.03" y1="37.84" x2="102.03" y2="42.22"/>
      <line class="cls-1" x1="46.85" y1="1.64" x2="46.85" y2="6.03"/>
    </g>
  </g>
</svg>